<?xml version="1.0" encoding="UTF-8"?>
<svg xmlns="http://www.w3.org/2000/svg" xmlns:xlink="http://www.w3.org/1999/xlink" width="150pt" height="150pt" viewBox="0 0 150 150" version="1.1">
<defs>
<clipPath id="clip1">
  <path d="M 29.039062 29.039062 L 120.492188 29.039062 L 120.492188 120.492188 L 29.039062 120.492188 Z M 29.039062 29.039062 "/>
</clipPath>
</defs>
<g id="surface1">
<g clip-path="url(#clip1)" clip-rule="nonzero">
<path style=" stroke:none;fill-rule:nonzero;fill:rgb(100%,67.45098%,80%);fill-opacity:1;" d="M 120.492188 74.765625 C 120.492188 75.511719 120.472656 76.261719 120.4375 77.007812 C 120.398438 77.757812 120.34375 78.5 120.269531 79.246094 C 120.195312 79.992188 120.105469 80.734375 119.996094 81.476562 C 119.886719 82.214844 119.757812 82.953125 119.613281 83.6875 C 119.464844 84.417969 119.300781 85.148438 119.121094 85.875 C 118.9375 86.601562 118.738281 87.320312 118.519531 88.039062 C 118.304688 88.753906 118.070312 89.464844 117.820312 90.167969 C 117.566406 90.875 117.296875 91.574219 117.007812 92.261719 C 116.722656 92.957031 116.421875 93.640625 116.101562 94.316406 C 115.78125 94.992188 115.445312 95.660156 115.089844 96.320312 C 114.738281 96.980469 114.371094 97.628906 113.984375 98.273438 C 113.601562 98.914062 113.199219 99.546875 112.785156 100.167969 C 112.367188 100.792969 111.9375 101.402344 111.492188 102.003906 C 111.046875 102.605469 110.585938 103.195312 110.113281 103.773438 C 109.636719 104.351562 109.148438 104.917969 108.644531 105.472656 C 108.144531 106.027344 107.628906 106.570312 107.097656 107.097656 C 106.570312 107.628906 106.027344 108.144531 105.472656 108.644531 C 104.917969 109.148438 104.351562 109.636719 103.773438 110.113281 C 103.195312 110.585938 102.605469 111.046875 102.003906 111.492188 C 101.402344 111.9375 100.792969 112.367188 100.167969 112.785156 C 99.546875 113.199219 98.914062 113.601562 98.273438 113.984375 C 97.628906 114.371094 96.980469 114.738281 96.320312 115.089844 C 95.660156 115.445312 94.992188 115.78125 94.316406 116.101562 C 93.640625 116.421875 92.957031 116.722656 92.261719 117.007812 C 91.574219 117.296875 90.875 117.566406 90.167969 117.820312 C 89.464844 118.070312 88.753906 118.304688 88.039062 118.519531 C 87.320312 118.738281 86.601562 118.9375 85.875 119.121094 C 85.148438 119.300781 84.417969 119.464844 83.6875 119.613281 C 82.953125 119.757812 82.214844 119.886719 81.476562 119.996094 C 80.734375 120.105469 79.992188 120.195312 79.246094 120.269531 C 78.5 120.34375 77.757812 120.398438 77.007812 120.4375 C 76.261719 120.472656 75.511719 120.492188 74.765625 120.492188 C 74.015625 120.492188 73.269531 120.472656 72.523438 120.4375 C 71.773438 120.398438 71.027344 120.34375 70.28125 120.269531 C 69.539062 120.195312 68.796875 120.105469 68.054688 119.996094 C 67.316406 119.886719 66.578125 119.757812 65.84375 119.613281 C 65.109375 119.464844 64.382812 119.300781 63.65625 119.121094 C 62.929688 118.9375 62.207031 118.738281 61.492188 118.519531 C 60.777344 118.304688 60.066406 118.070312 59.359375 117.820312 C 58.65625 117.566406 57.957031 117.296875 57.265625 117.007812 C 56.574219 116.722656 55.890625 116.421875 55.214844 116.101562 C 54.539062 115.78125 53.871094 115.445312 53.210938 115.089844 C 52.550781 114.738281 51.898438 114.371094 51.257812 113.984375 C 50.613281 113.601562 49.984375 113.199219 49.359375 112.785156 C 48.738281 112.367188 48.128906 111.9375 47.527344 111.492188 C 46.925781 111.046875 46.335938 110.585938 45.757812 110.113281 C 45.179688 109.636719 44.613281 109.148438 44.058594 108.644531 C 43.503906 108.144531 42.960938 107.628906 42.433594 107.097656 C 41.902344 106.570312 41.386719 106.027344 40.882812 105.472656 C 40.382812 104.917969 39.894531 104.351562 39.417969 103.773438 C 38.945312 103.195312 38.484375 102.605469 38.039062 102.003906 C 37.59375 101.402344 37.160156 100.792969 36.746094 100.167969 C 36.332031 99.546875 35.929688 98.914062 35.546875 98.273438 C 35.160156 97.628906 34.792969 96.980469 34.4375 96.320312 C 34.085938 95.660156 33.75 94.992188 33.429688 94.316406 C 33.109375 93.640625 32.804688 92.957031 32.519531 92.261719 C 32.234375 91.574219 31.964844 90.875 31.710938 90.167969 C 31.460938 89.464844 31.226562 88.753906 31.007812 88.039062 C 30.792969 87.320312 30.589844 86.601562 30.410156 85.875 C 30.226562 85.148438 30.0625 84.417969 29.917969 83.6875 C 29.773438 82.953125 29.644531 82.214844 29.535156 81.476562 C 29.425781 80.734375 29.332031 79.992188 29.257812 79.246094 C 29.1875 78.5 29.132812 77.757812 29.09375 77.007812 C 29.058594 76.261719 29.039062 75.511719 29.039062 74.765625 C 29.039062 74.015625 29.058594 73.269531 29.09375 72.523438 C 29.132812 71.773438 29.1875 71.027344 29.257812 70.28125 C 29.332031 69.539062 29.425781 68.796875 29.535156 68.054688 C 29.644531 67.316406 29.773438 66.578125 29.917969 65.84375 C 30.0625 65.109375 30.226562 64.382812 30.410156 63.65625 C 30.589844 62.929688 30.792969 62.207031 31.007812 61.492188 C 31.226562 60.777344 31.460938 60.066406 31.710938 59.359375 C 31.964844 58.65625 32.234375 57.957031 32.519531 57.265625 C 32.804688 56.574219 33.109375 55.890625 33.429688 55.214844 C 33.75 54.539062 34.085938 53.871094 34.4375 53.210938 C 34.792969 52.550781 35.160156 51.898438 35.546875 51.257812 C 35.929688 50.613281 36.332031 49.984375 36.746094 49.359375 C 37.160156 48.738281 37.59375 48.128906 38.039062 47.527344 C 38.484375 46.925781 38.945312 46.335938 39.417969 45.757812 C 39.894531 45.179688 40.382812 44.613281 40.882812 44.058594 C 41.386719 43.503906 41.902344 42.960938 42.433594 42.433594 C 42.960938 41.902344 43.503906 41.386719 44.058594 40.882812 C 44.613281 40.382812 45.179688 39.894531 45.757812 39.417969 C 46.335938 38.945312 46.925781 38.484375 47.527344 38.039062 C 48.128906 37.59375 48.738281 37.160156 49.359375 36.746094 C 49.984375 36.332031 50.613281 35.929688 51.257812 35.546875 C 51.898438 35.160156 52.550781 34.792969 53.210938 34.4375 C 53.871094 34.085938 54.539062 33.75 55.214844 33.429688 C 55.890625 33.109375 56.574219 32.804688 57.265625 32.519531 C 57.957031 32.234375 58.65625 31.964844 59.359375 31.710938 C 60.066406 31.460938 60.777344 31.226562 61.492188 31.007812 C 62.207031 30.792969 62.929688 30.589844 63.65625 30.410156 C 64.382812 30.226562 65.109375 30.0625 65.84375 29.917969 C 66.578125 29.773438 67.316406 29.644531 68.054688 29.535156 C 68.796875 29.425781 69.539062 29.332031 70.28125 29.257812 C 71.027344 29.1875 71.773438 29.132812 72.523438 29.09375 C 73.269531 29.058594 74.015625 29.039062 74.765625 29.039062 C 75.511719 29.039062 76.261719 29.058594 77.007812 29.09375 C 77.757812 29.132812 78.5 29.1875 79.246094 29.257812 C 79.992188 29.332031 80.734375 29.425781 81.476562 29.535156 C 82.214844 29.644531 82.953125 29.773438 83.6875 29.917969 C 84.417969 30.0625 85.148438 30.226562 85.875 30.410156 C 86.601562 30.589844 87.320312 30.792969 88.039062 31.007812 C 88.753906 31.226562 89.464844 31.460938 90.167969 31.710938 C 90.875 31.964844 91.574219 32.234375 92.261719 32.519531 C 92.957031 32.804688 93.640625 33.109375 94.316406 33.429688 C 94.992188 33.75 95.660156 34.085938 96.320312 34.4375 C 96.980469 34.792969 97.628906 35.160156 98.273438 35.546875 C 98.914062 35.929688 99.546875 36.332031 100.167969 36.746094 C 100.792969 37.160156 101.402344 37.59375 102.003906 38.039062 C 102.605469 38.484375 103.195312 38.945312 103.773438 39.417969 C 104.351562 39.894531 104.917969 40.382812 105.472656 40.882812 C 106.027344 41.386719 106.570312 41.902344 107.097656 42.433594 C 107.628906 42.960938 108.144531 43.503906 108.644531 44.058594 C 109.148438 44.613281 109.636719 45.179688 110.113281 45.757812 C 110.585938 46.335938 111.046875 46.925781 111.492188 47.527344 C 111.9375 48.128906 112.367188 48.738281 112.785156 49.359375 C 113.199219 49.984375 113.601562 50.613281 113.984375 51.257812 C 114.371094 51.898438 114.738281 52.550781 115.089844 53.210938 C 115.445312 53.871094 115.78125 54.539062 116.101562 55.214844 C 116.421875 55.890625 116.722656 56.574219 117.007812 57.265625 C 117.296875 57.957031 117.566406 58.65625 117.820312 59.359375 C 118.070312 60.066406 118.304688 60.777344 118.519531 61.492188 C 118.738281 62.207031 118.9375 62.929688 119.121094 63.65625 C 119.300781 64.382812 119.464844 65.109375 119.613281 65.84375 C 119.757812 66.578125 119.886719 67.316406 119.996094 68.054688 C 120.105469 68.796875 120.195312 69.539062 120.269531 70.28125 C 120.34375 71.027344 120.398438 71.773438 120.4375 72.523438 C 120.472656 73.269531 120.492188 74.015625 120.492188 74.765625 Z M 120.492188 74.765625 "/>
</g>
<path style=" stroke:none;fill-rule:nonzero;fill:rgb(29.019608%,29.019608%,29.411765%);fill-opacity:1;" d="M 41.800781 75.488281 C 43.285156 75.488281 46.015625 73.785156 46.015625 69.652344 L 46 59.496094 L 43.867188 59.496094 L 43.867188 73.691406 C 43.867188 74.8125 42.636719 75.269531 41.960938 75.269531 C 41.078125 75.269531 41.25 73.566406 40.367188 73.566406 C 39.878906 73.566406 39.40625 74.039062 39.40625 74.527344 C 39.40625 75.015625 40.585938 75.488281 41.800781 75.488281 Z M 41.800781 75.488281 "/>
<path style=" stroke:none;fill-rule:nonzero;fill:rgb(29.019608%,29.019608%,29.411765%);fill-opacity:1;" d="M 54.40625 72.175781 C 57.8125 72.175781 61.15625 69.007812 61.15625 65.757812 C 61.15625 62.507812 57.890625 59.335938 54.5625 59.335938 C 51.296875 59.335938 48.109375 62.507812 48.109375 65.757812 C 48.109375 69.007812 51.234375 72.175781 54.40625 72.175781 Z M 54.4375 72.019531 C 52.417969 72.019531 50.429688 68.910156 50.429688 65.757812 C 50.429688 62.601562 52.464844 59.496094 54.53125 59.496094 C 56.707031 59.496094 58.835938 62.601562 58.835938 65.757812 C 58.835938 68.910156 56.660156 72.019531 54.4375 72.019531 Z M 54.4375 72.019531 "/>
<path style=" stroke:none;fill-rule:nonzero;fill:rgb(29.019608%,29.019608%,29.411765%);fill-opacity:1;" d="M 61.546875 72.019531 L 64.417969 72.019531 L 64.417969 71.972656 L 64.214844 71.972656 C 63.644531 71.972656 63.3125 71.183594 63.550781 70.394531 L 64.480469 67.175781 L 68.566406 67.175781 L 69.65625 70.535156 C 69.828125 71.292969 69.527344 71.972656 68.992188 71.972656 L 68.789062 71.972656 L 68.773438 72.019531 L 73.046875 72.019531 L 73.046875 71.972656 L 72.9375 71.972656 C 72.636719 71.972656 72.085938 71.183594 71.816406 70.394531 L 68.078125 59.179688 L 67.855469 59.179688 C 67.921875 59.558594 67.148438 60.046875 66.28125 60.171875 L 66.328125 60.328125 C 65.332031 63.691406 64.355469 67.050781 63.34375 70.394531 C 63.109375 71.199219 62.320312 71.972656 61.753906 71.972656 L 61.546875 71.972656 Z M 64.527344 67.003906 L 66.40625 60.535156 L 68.503906 67.003906 Z M 64.527344 67.003906 "/>
<path style=" stroke:none;fill-rule:nonzero;fill:rgb(29.019608%,29.019608%,29.411765%);fill-opacity:1;" d="M 82.523438 72.035156 L 82.964844 72.035156 L 83.109375 60.234375 C 83.15625 59.808594 83.359375 59.558594 83.675781 59.558594 L 83.675781 59.511719 L 82.476562 59.511719 L 82.476562 60.347656 L 82.507812 68.328125 C 80.15625 65.378906 77.792969 62.445312 75.425781 59.511719 L 72.273438 59.511719 L 72.273438 59.558594 C 72.601562 59.558594 73.074219 59.90625 73.421875 60.347656 L 74.386719 61.589844 L 74.351562 71.199219 C 74.351562 71.59375 74.132812 71.988281 73.894531 71.988281 L 73.800781 71.988281 L 73.816406 72.019531 L 75.566406 72.019531 L 75.566406 71.972656 L 75.472656 71.972656 C 75.253906 71.972656 75.015625 71.578125 75.015625 71.183594 L 74.953125 62.300781 C 77.476562 65.550781 80 68.800781 82.523438 72.035156 Z M 82.523438 72.035156 "/>
<path style=" stroke:none;fill-rule:nonzero;fill:rgb(29.019608%,29.019608%,29.411765%);fill-opacity:1;" d="M 94.082031 72.035156 L 94.527344 72.035156 L 94.667969 60.234375 C 94.714844 59.808594 94.921875 59.558594 95.234375 59.558594 L 95.234375 59.511719 L 94.035156 59.511719 L 94.035156 60.347656 L 94.066406 68.328125 C 91.71875 65.378906 89.351562 62.445312 86.984375 59.511719 L 83.832031 59.511719 L 83.832031 59.558594 C 84.164062 59.558594 84.636719 59.90625 84.980469 60.347656 L 85.945312 61.589844 L 85.914062 71.199219 C 85.914062 71.59375 85.691406 71.988281 85.457031 71.988281 L 85.363281 71.988281 L 85.378906 72.019531 L 87.128906 72.019531 L 87.128906 71.972656 L 87.03125 71.972656 C 86.8125 71.972656 86.578125 71.578125 86.578125 71.183594 L 86.511719 62.300781 C 89.035156 65.550781 91.558594 68.800781 94.082031 72.035156 Z M 94.082031 72.035156 "/>
<path style=" stroke:none;fill-rule:nonzero;fill:rgb(29.019608%,29.019608%,29.411765%);fill-opacity:1;" d="M 95.691406 72.019531 L 98.5625 72.019531 L 98.5625 71.972656 L 98.355469 71.972656 C 97.789062 71.972656 97.457031 71.183594 97.695312 70.394531 L 98.625 67.175781 L 102.710938 67.175781 L 103.800781 70.535156 C 103.972656 71.292969 103.671875 71.972656 103.136719 71.972656 L 102.929688 71.972656 L 102.914062 72.019531 L 107.191406 72.019531 L 107.191406 71.972656 L 107.082031 71.972656 C 106.78125 71.972656 106.226562 71.183594 105.960938 70.394531 L 102.222656 59.179688 L 102 59.179688 C 102.0625 59.558594 101.292969 60.046875 100.421875 60.171875 L 100.46875 60.328125 C 99.476562 63.691406 98.5 67.050781 97.488281 70.394531 C 97.253906 71.199219 96.464844 71.972656 95.894531 71.972656 L 95.691406 71.972656 Z M 98.671875 67.003906 L 100.550781 60.535156 L 102.648438 67.003906 Z M 98.671875 67.003906 "/>
<path style=" stroke:none;fill-rule:nonzero;fill:rgb(29.019608%,29.019608%,29.411765%);fill-opacity:1;" d="M 42.28125 92.664062 C 43.800781 92.664062 46.597656 90.917969 46.597656 86.683594 L 46.582031 76.273438 L 44.398438 76.273438 L 44.398438 90.824219 C 44.398438 91.972656 43.136719 92.4375 42.441406 92.4375 C 41.535156 92.4375 41.714844 90.691406 40.808594 90.691406 C 40.308594 90.691406 39.824219 91.179688 39.824219 91.679688 C 39.824219 92.179688 41.035156 92.664062 42.28125 92.664062 Z M 42.28125 92.664062 "/>
<path style=" stroke:none;fill-rule:nonzero;fill:rgb(29.019608%,29.019608%,29.411765%);fill-opacity:1;" d="M 55.195312 89.273438 C 58.6875 89.273438 62.117188 86.023438 62.117188 82.691406 C 62.117188 79.363281 58.769531 76.113281 55.359375 76.113281 C 52.011719 76.113281 48.746094 79.363281 48.746094 82.691406 C 48.746094 86.023438 51.949219 89.273438 55.195312 89.273438 Z M 55.230469 89.109375 C 53.160156 89.109375 51.125 85.925781 51.125 82.691406 C 51.125 79.457031 53.207031 76.273438 55.324219 76.273438 C 57.558594 76.273438 59.738281 79.457031 59.738281 82.691406 C 59.738281 85.925781 57.507812 89.109375 55.230469 89.109375 Z M 55.230469 89.109375 "/>
<path style=" stroke:none;fill-rule:nonzero;fill:rgb(29.019608%,29.019608%,29.411765%);fill-opacity:1;" d="M 67.835938 89.273438 C 69.824219 89.273438 71.78125 87.460938 71.78125 85.601562 C 71.78125 84.164062 70.324219 82.222656 68.5 81.5625 C 66.914062 80.976562 65.65625 79.683594 65.65625 78.8125 C 65.65625 77.535156 66.542969 76.273438 67.464844 76.273438 C 68.015625 76.273438 68.679688 76.550781 69.257812 76.953125 C 69.4375 77.128906 70.164062 77.9375 70.859375 78.730469 L 70.972656 78.859375 L 71.183594 78.859375 L 71.183594 77.097656 L 71.101562 77.097656 L 71.085938 77.277344 C 71.070312 77.453125 70.746094 77.40625 70.40625 77.179688 C 69.617188 76.566406 68.433594 76.097656 67.464844 76.097656 C 65.6875 76.097656 63.957031 77.84375 63.957031 79.636719 C 63.957031 81.15625 65.394531 83.160156 67.191406 83.808594 C 68.773438 84.390625 70.035156 85.519531 70.035156 86.214844 C 70.035156 87.640625 68.953125 89.046875 67.835938 89.046875 C 67.222656 89.046875 66.398438 88.59375 65.6875 87.945312 C 66.109375 88.316406 65.332031 87.332031 64.101562 85.925781 L 63.988281 85.796875 L 63.765625 85.828125 L 63.765625 88.1875 L 63.84375 88.1875 L 63.859375 87.863281 C 63.875 87.507812 64.328125 87.542969 64.78125 87.898438 C 65.671875 88.691406 66.882812 89.273438 67.835938 89.273438 Z M 67.835938 89.273438 "/>
<path style=" stroke:none;fill-rule:nonzero;fill:rgb(29.019608%,29.019608%,29.411765%);fill-opacity:1;" d="M 73.800781 89.109375 L 81.835938 89.109375 L 81.851562 89.046875 C 81.867188 89.046875 82.0625 87.832031 82.078125 87.75 L 81.933594 87.75 L 81.851562 87.945312 C 81.640625 88.464844 80.625 88.964844 79.765625 88.964844 L 76.535156 88.964844 C 76.113281 88.964844 75.984375 88.769531 75.984375 88.558594 L 75.984375 82.511719 L 78.765625 82.511719 C 79.410156 82.511719 80.15625 83.097656 80.269531 83.679688 L 80.316406 83.886719 L 80.460938 83.886719 L 80.460938 80.992188 L 80.316406 80.992188 L 80.269531 81.203125 C 80.15625 81.789062 79.410156 82.367188 78.765625 82.367188 L 75.984375 82.367188 L 75.984375 76.417969 L 79.75 76.417969 C 80.398438 76.417969 81.203125 77 81.382812 77.582031 L 81.464844 77.792969 L 81.609375 77.792969 L 81.429688 76.339844 L 81.449219 76.339844 L 81.429688 76.273438 L 73.800781 76.273438 Z M 73.800781 89.109375 "/>
<path style=" stroke:none;fill-rule:nonzero;fill:rgb(29.019608%,29.019608%,29.411765%);fill-opacity:1;" d="M 84.535156 89.109375 L 86.71875 89.109375 L 86.71875 83.320312 L 87.636719 83.320312 C 90.355469 83.320312 93.007812 81.898438 93.007812 79.910156 C 93.007812 78.070312 90.789062 76.273438 88.542969 76.273438 L 84.535156 76.273438 Z M 86.71875 82.871094 L 86.71875 76.644531 L 87.996094 76.644531 C 89.480469 76.644531 90.953125 78.085938 90.953125 79.539062 C 90.953125 81.480469 89.320312 82.871094 87.636719 82.871094 Z M 86.71875 82.871094 "/>
<path style=" stroke:none;fill-rule:nonzero;fill:rgb(29.019608%,29.019608%,29.411765%);fill-opacity:1;" d="M 95.300781 89.109375 L 97.480469 89.109375 L 97.480469 82.5625 L 102.976562 82.5625 L 102.976562 89.109375 L 105.160156 89.109375 L 105.160156 76.273438 L 102.976562 76.273438 L 102.976562 82.386719 L 97.480469 82.386719 L 97.480469 76.273438 L 95.300781 76.273438 Z M 95.300781 89.109375 "/>
</g>
</svg>
